<mxfile host="app.diagrams.net" agent="Mozilla/5.0 (Windows NT 10.0; Win64; x64) AppleWebKit/537.36 (KHTML, like Gecko) Chrome/133.0.0.0 Safari/537.36" version="26.0.16">
  <diagram name="第 1 页" id="97Cz55rMxZau6siSPrqN">
    <mxGraphModel dx="1436" dy="727" grid="1" gridSize="10" guides="1" tooltips="1" connect="1" arrows="1" fold="1" page="1" pageScale="1" pageWidth="827" pageHeight="1169" math="0" shadow="0">
      <root>
        <mxCell id="0" />
        <mxCell id="1" parent="0" />
        <mxCell id="H2AL2cRKeRID5HI2EGIN-1" value="" style="rounded=0;whiteSpace=wrap;html=1;fillColor=none;" vertex="1" parent="1">
          <mxGeometry x="10" y="110" width="750" height="510" as="geometry" />
        </mxCell>
        <mxCell id="H2AL2cRKeRID5HI2EGIN-3" value="" style="endArrow=none;html=1;rounded=0;" edge="1" parent="1">
          <mxGeometry width="50" height="50" relative="1" as="geometry">
            <mxPoint x="10" y="180" as="sourcePoint" />
            <mxPoint x="760" y="180" as="targetPoint" />
          </mxGeometry>
        </mxCell>
        <mxCell id="H2AL2cRKeRID5HI2EGIN-20" value="Login" style="rounded=0;whiteSpace=wrap;html=1;" vertex="1" parent="1">
          <mxGeometry x="580" y="130" width="70" height="30" as="geometry" />
        </mxCell>
        <mxCell id="H2AL2cRKeRID5HI2EGIN-23" value="" style="rounded=0;whiteSpace=wrap;html=1;" vertex="1" parent="1">
          <mxGeometry x="10" y="230" width="750" height="130" as="geometry" />
        </mxCell>
        <mxCell id="H2AL2cRKeRID5HI2EGIN-21" value="Sign up" style="rounded=0;whiteSpace=wrap;html=1;" vertex="1" parent="1">
          <mxGeometry x="670" y="130" width="70" height="30" as="geometry" />
        </mxCell>
        <mxCell id="H2AL2cRKeRID5HI2EGIN-28" value="" style="rounded=0;whiteSpace=wrap;html=1;" vertex="1" parent="1">
          <mxGeometry x="30" y="410" width="220" height="120" as="geometry" />
        </mxCell>
        <mxCell id="H2AL2cRKeRID5HI2EGIN-29" value="" style="rounded=0;whiteSpace=wrap;html=1;" vertex="1" parent="1">
          <mxGeometry x="275" y="410" width="220" height="120" as="geometry" />
        </mxCell>
        <mxCell id="H2AL2cRKeRID5HI2EGIN-30" value="" style="rounded=0;whiteSpace=wrap;html=1;" vertex="1" parent="1">
          <mxGeometry x="520" y="410" width="220" height="120" as="geometry" />
        </mxCell>
      </root>
    </mxGraphModel>
  </diagram>
</mxfile>
